<?xml version="1.0" encoding="UTF-8"?>
<svg xmlns="http://www.w3.org/2000/svg" viewBox="0 0 1024 1024" role="img">
  <title>太 U+592A ordered strokes</title>
  <metadata>Derived without path alteration from Make Me a Hanzi graphics.txt commit bddc96d41bef78427ed0e034e9f7e31d71fd1b92; Arphic Public License; generated wrapper adds path indices and the source coordinate transform. Stroke-type names are unavailable in the path source.</metadata>
  <g fill="#000" transform="scale(1,-1) translate(0,-900)">
    <path id="stroke-U+592A-1" data-stroke-index="1" data-stroke-type-status="source-unavailable" d="M 507 492 Q 607 507 766 509 Q 835 509 841 520 Q 847 533 828 548 Q 768 588 727 580 Q 646 561 513 536 L 453 526 Q 338 510 205 489 Q 183 486 200 467 Q 216 452 236 447 Q 260 441 277 447 Q 356 471 447 483 L 507 492 Z"/>
    <path id="stroke-U+592A-2" data-stroke-index="2" data-stroke-type-status="source-unavailable" d="M 502 466 Q 503 479 507 492 L 513 536 Q 513 650 538 734 L 547 782 Q 546 785 544 786 Q 525 805 485 822 Q 461 832 442 827 Q 420 820 437 799 Q 468 766 467 732 Q 464 617 453 526 L 447 483 Q 414 297 352 204 Q 283 116 144 33 Q 129 27 126 23 Q 122 16 139 14 Q 187 11 302 85 Q 363 133 389 162 L 409 188 Q 460 269 494 419 L 502 466 Z"/>
    <path id="stroke-U+592A-3" data-stroke-index="3" data-stroke-type-status="source-unavailable" d="M 494 419 Q 516 373 572 278 Q 648 148 706 73 Q 733 36 762 34 Q 852 28 929 20 Q 963 17 964 25 Q 965 34 931 51 Q 753 135 732 156 Q 651 234 535 413 Q 516 441 502 466 C 487 492 481 446 494 419 Z"/>
    <path id="stroke-U+592A-4" data-stroke-index="4" data-stroke-type-status="source-unavailable" d="M 389 162 Q 395 155 408 141 Q 439 108 474 68 Q 484 55 500 53 Q 510 53 517 65 Q 523 78 518 108 Q 514 132 481 154 Q 447 172 409 188 C 381 200 369 185 389 162 Z"/>
  </g>
</svg>
