<?xml version="1.0" encoding="UTF-8" standalone="no"?>
<!-- Created with Inkscape (http://www.inkscape.org/) -->

<svg
   xmlns:dc="http://purl.org/dc/elements/1.1/"
   xmlns:cc="http://creativecommons.org/ns#"
   xmlns:rdf="http://www.w3.org/1999/02/22-rdf-syntax-ns#"
   xmlns:svg="http://www.w3.org/2000/svg"
   xmlns="http://www.w3.org/2000/svg"
   xmlns:sodipodi="http://sodipodi.sourceforge.net/DTD/sodipodi-0.dtd"
   xmlns:inkscape="http://www.inkscape.org/namespaces/inkscape"
   width="300"
   height="300"
   id="svg2"
   version="1.1"
   inkscape:version="0.48.4 r9939"
   sodipodi:docname="image-seal.svg">
  <defs
     id="defs4" />
  <sodipodi:namedview
     id="base"
     pagecolor="#ffffff"
     bordercolor="#666666"
     borderopacity="1.0"
     inkscape:pageopacity="0.0"
     inkscape:pageshadow="2"
     inkscape:zoom="1.979899"
     inkscape:cx="210.04556"
     inkscape:cy="115.30976"
     inkscape:document-units="px"
     inkscape:current-layer="layer1"
     showgrid="false"
     inkscape:window-width="1215"
     inkscape:window-height="1000"
     inkscape:window-x="65"
     inkscape:window-y="24"
     inkscape:window-maximized="1" />
  <metadata
     id="metadata7">
    <rdf:RDF>
      <cc:Work
         rdf:about="">
        <dc:format>image/svg+xml</dc:format>
        <dc:type
           rdf:resource="http://purl.org/dc/dcmitype/StillImage" />
        <dc:title />
      </cc:Work>
    </rdf:RDF>
  </metadata>
  <g
     inkscape:label="Calque 1"
     inkscape:groupmode="layer"
     id="layer1"
     transform="translate(0,-752.36218)">
    <path
       style="fill:#000000"
       d="m 181.97565,1045.2202 c -0.96236,-0.9624 -1.02577,-19.8857 -0.1409,-42.0518 1.51689,-37.99857 1.33386,-40.58952 -3.20237,-45.33123 -10.11518,-10.57334 -11.0776,-15.07981 -5.62564,-26.34207 8.04392,-16.61649 5.8887,-54.71829 -4.74095,-83.8142 -3.33872,-9.13894 -2.98505,-9.05647 -18.59261,-4.3358 -6.52267,1.97285 -17.89294,4.75837 -25.26725,6.19003 -21.8138,4.23497 -34.375566,11.93004 -41.994868,25.72516 -14.2982,25.88754 -5.45282,51.01029 17.727978,50.35121 7.04344,-0.20038 19.39132,-9.72053 19.39132,-14.95077 0,-1.08886 2.90467,-4.88442 6.45482,-8.4346 6.28569,-6.28566 6.5417,-6.33078 9.76972,-1.72215 2.88076,4.11287 2.60402,5.95232 -2.11317,14.04521 -6.28661,10.78548 -8.0904,12.73858 -17.07284,18.48584 -18.247756,11.67556 -53.129068,-2.5746 -56.115898,-22.92519 -2.53479,-17.2706 5.817,-41.34167 18.82995,-54.27064 10.258702,-10.19249 15.495482,-12.40963 43.904098,-18.58791 13.40783,-2.91593 26.57187,-6.17659 29.25344,-7.2459 2.68157,-1.06929 8.71509,-3.34343 13.40783,-5.05363 4.69274,-1.71018 11.44411,-5.11189 15.00304,-7.55938 3.55892,-2.44747 7.1705,-4.44994 8.0257,-4.44994 1.70984,0 3.59077,-1.39434 15.4758,-11.47239 7.35561,-6.23728 8.15601,-8.30644 9.50186,-24.56368 0.80832,-9.76399 2.47757,-18.37562 3.70948,-19.13696 6.45049,-3.98664 13.83688,22.33161 9.48214,33.78548 -3.66153,9.63054 -17.22433,23.81517 -31.52148,32.96665 -9.46856,6.06075 -12.57459,9.38011 -11.47025,12.25802 0.83297,2.17063 2.09784,12.23057 2.81082,22.3554 0.713,10.12486 2.30936,21.58929 3.54746,25.47651 1.23808,3.88724 2.25517,13.21178 2.2602,20.72118 0.007,9.3415 1.54602,16.17428 4.87557,21.63524 6.3066,10.34379 6.30263,23.5907 -0.01,30.36556 -3.68394,3.95423 -4.89942,8.69592 -4.97309,19.40036 -0.0536,7.79188 -0.14139,25.40469 -0.19502,39.13959 -0.10385,26.5754 -3.52087,36.2217 -10.39577,29.3468 z"
       id="path3909"
       inkscape:connector-curvature="0" />
  </g>
</svg>
